<mxfile host="app.diagrams.net" modified="2024-07-15T02:40:08.560Z" agent="Mozilla/5.0 (Windows NT 10.0; Win64; x64) AppleWebKit/537.36 (KHTML, like Gecko) Chrome/126.0.0.0 Safari/537.36" version="24.6.5" etag="jnM2Y-QdTsRu81_GPglP" type="github">
  <diagram name="Page-1" id="ZhkAO-OksAHkfIsfI0hL">
    <mxGraphModel>
      <root>
        <mxCell id="0" />
        <mxCell id="1" parent="0" />
      </root>
    </mxGraphModel>
  </diagram>
</mxfile>
